HIERARCHY
ROOT Hips
{
	OFFSET 0.000000 0.000000 0.000000
	CHANNELS 6 Xposition Yposition Zposition Zrotation Yrotation Xrotation 
	JOINT LHipJoint
	{
		OFFSET 0.000000 0.000000 0.000000
		CHANNELS 3 Zrotation Yrotation Xrotation
		JOINT LeftUpLeg
		{
			OFFSET 1.363060 -1.794630 0.839290
			CHANNELS 3 Zrotation Yrotation Xrotation
			JOINT LeftLeg
			{
				OFFSET 2.448110 -6.726130 0.000000
				CHANNELS 3 Zrotation Yrotation Xrotation
				JOINT LeftFoot
				{
					OFFSET 2.562200 -7.039590 0.000000
					CHANNELS 3 Zrotation Yrotation Xrotation
					JOINT LeftToeBase
					{
						OFFSET 0.157640 -0.433110 2.322550
						CHANNELS 3 Zrotation Yrotation Xrotation
						End Site
						{
							OFFSET 0.000000 0.000000 0.000000
						}
					}
				}
			}
		}
	}
	JOINT RHipJoint
	{
		OFFSET 0.000000 0.000000 0.000000
		CHANNELS 3 Zrotation Yrotation Xrotation
		JOINT RightUpLeg
		{
			OFFSET -1.305520 -1.794630 0.839290
			CHANNELS 3 Zrotation Yrotation Xrotation
			JOINT RightLeg
			{
				OFFSET -2.542530 -6.985550 0.000000
				CHANNELS 3 Zrotation Yrotation Xrotation
				JOINT RightFoot
				{
					OFFSET -2.568260 -7.056230 0.000000
					CHANNELS 3 Zrotation Yrotation Xrotation
					JOINT RightToeBase
					{
						OFFSET -0.164730 -0.452590 2.363150
						CHANNELS 3 Zrotation Yrotation Xrotation
						End Site
						{
							OFFSET 0.000000 0.000000 0.000000
						}
					}
				}
			}
		}
	}
}
MOTION
Frames: 27
Frame Time: 0.008333
-2.227824 15.804310 -0.541580 -47.645802 87.550110 -22.225430 -8.095078 -1.985835 -0.071046 -9.205387 -5.519328 -66.166334 -1.059064 2.689235 41.844285 1.215618 5.385129 -0.368420 1.099599 -0.000000 -22.310100 10.823092 -0.923976 -6.340513 9.793153 -11.304028 -21.196589 2.490016 -3.695640 50.764805 0.469678 9.814124 -19.776922 -1.691900 -0.000000 -61.512800
-2.078443 15.798670 -0.549983 -46.026369 87.404573 -20.654774 -8.101980 -1.964179 -0.095227 -9.121900 -5.616456 -66.136498 -0.979720 2.767426 43.179514 1.315181 5.776878 -1.452999 1.033800 -0.000000 -21.120600 10.911505 -0.937901 -6.309526 9.459327 -11.299927 -21.122051 2.299157 -3.762230 51.541644 0.564037 10.039916 -18.330956 -1.599100 -0.000000 -63.753300
-1.930361 15.795876 -0.559565 -45.749199 87.273728 -20.417290 -8.105644 -1.960744 -0.120405 -9.029843 -5.715530 -66.014029 -0.916052 2.822794 44.377538 1.419581 6.172572 -2.716968 0.934300 -0.000000 -20.160900 10.999653 -0.969514 -6.273722 9.189138 -11.274993 -21.099077 2.108030 -3.837605 52.329947 0.639191 10.173922 -16.855495 -1.464401 0.000000 -65.753700
-1.783757 15.795615 -0.570264 -46.345439 87.143521 -21.048011 -8.107858 -1.970531 -0.146031 -8.917379 -5.811248 -65.807638 -0.864016 2.859647 45.447838 1.525910 6.559518 -4.074789 0.804300 0.000000 -19.399900 11.087405 -1.011984 -6.235922 8.978913 -11.233843 -21.126496 1.913479 -3.919072 53.138387 0.696020 10.219936 -15.336385 -1.291900 0.000000 -67.529900
-1.638825 15.797605 -0.581909 -47.374542 87.004696 -22.109682 -8.112498 -1.989473 -0.172218 -8.779537 -5.898345 -65.528833 -0.819799 2.882835 46.402675 1.630795 6.927999 -5.441821 0.651800 -0.000000 -18.816100 11.172099 -1.059099 -6.198941 8.821022 -11.180925 -21.202384 1.713001 -4.003939 53.973181 0.735476 10.186199 -13.760017 -1.086600 -0.000000 -69.070700
-1.495720 15.801660 -0.594190 -48.449074 86.852170 -23.216952 -8.122773 -2.012851 -0.199342 -8.618270 -5.972311 -65.191999 -0.780326 2.897343 47.255659 1.730756 7.271515 -6.744780 0.487300 0.000000 -18.386400 11.251697 -1.104437 -6.165460 8.704748 -11.122595 -21.327149 1.504075 -4.089669 54.840845 0.758487 10.083546 -12.107527 -0.852600 0.000000 -70.370000
-1.354679 15.807644 -0.606722 -49.339756 86.685886 -24.142153 -8.139987 -2.036914 -0.228718 -8.440008 -6.029114 -64.811341 -0.743232 2.907317 48.021126 1.822738 7.586739 -7.929575 0.321700 -0.000000 -18.087400 11.325655 -1.142675 -6.137451 8.619894 -11.063812 -21.500413 1.285993 -4.174136 55.743780 0.765401 9.923203 -10.369523 -0.594700 0.000000 -71.395900
-1.215834 15.815465 -0.619092 -49.868514 86.510549 -24.707227 -8.163974 -2.056770 -0.260529 -8.257465 -6.068424 -64.400175 -0.707576 2.916083 48.710049 1.905002 7.874441 -8.965086 0.164100 -0.000000 -17.888600 11.395083 -1.168255 -6.117090 8.552702 -11.017265 -21.728643 1.057017 -4.255790 56.687563 0.756103 9.713991 -8.518422 -0.314100 -0.000000 -72.159801
-1.079312 15.825054 -0.630953 -49.993469 86.333212 -24.870418 -8.193666 -2.069768 -0.295895 -8.084399 -6.089155 -63.968596 -0.673512 2.925711 49.331387 1.976716 8.135494 -9.843978 0.020400 0.000000 -17.765900 11.460609 -1.177635 -6.105637 8.493460 -10.989969 -22.014014 0.819221 -4.333325 57.671972 0.729450 9.460913 -6.562486 -0.016600 0.000000 -72.629500
-0.945246 15.836369 -0.642051 -49.783764 86.161666 -24.700275 -8.227840 -2.075820 -0.336379 -7.932161 -6.089310 -63.522855 -0.642051 2.936917 49.891140 2.038100 8.370874 -10.580217 -0.108100 -0.000000 -17.698200 11.522033 -1.170081 -6.103605 8.439228 -10.984243 -22.355242 0.576544 -4.406128 58.692746 0.683598 9.157224 -4.527373 0.289000 0.000000 -72.731699
-0.813674 15.849366 -0.652238 -49.267651 86.003461 -24.224889 -8.265426 -2.073974 -0.382120 -7.813433 -6.069255 -63.065805 -0.615206 2.949825 50.390634 2.090615 8.583253 -11.202305 -0.222900 -0.000000 -17.666700 11.578828 -1.144525 -6.111907 8.384951 -11.007340 -22.755783 0.332715 -4.474050 59.749913 0.616901 8.789576 -2.443228 0.591100 -0.000001 -72.437101
-0.684534 15.863942 -0.661445 -48.530644 85.864929 -23.528714 -8.305532 -2.065004 -0.433080 -7.736025 -6.029284 -62.597088 -0.595118 2.963572 50.828610 2.136122 8.774407 -11.747545 -0.328399 -0.000000 -17.659200 11.629761 -1.102084 -6.130925 8.331718 -11.062555 -23.216577 0.092957 -4.537655 60.841068 0.528161 8.334172 -0.364820 0.870900 -0.000000 -71.698800
-0.557808 15.880008 -0.669786 -47.659324 85.750069 -22.698423 -8.347412 -2.050184 -0.488809 -7.703765 -5.969907 -62.113987 -0.583762 2.976839 51.202215 2.176584 8.945612 -12.254598 -0.430100 0.000000 -17.668800 11.673472 -1.044793 -6.160834 8.283206 -11.151523 -23.737799 -0.137689 -4.598221 61.964481 0.417128 7.759217 1.638478 1.103500 -0.000001 -70.483200
-0.433342 15.897399 -0.677411 -46.746883 85.660588 -21.826647 -8.390356 -2.031002 -0.548316 -7.715743 -5.892005 -61.612803 -0.582577 2.988035 51.508238 2.213623 9.096890 -12.757541 -0.533400 -0.000000 -17.692400 11.709002 -0.975487 -6.201572 8.245772 -11.274810 -24.319870 -0.355016 -4.657705 63.119133 0.284620 7.028606 3.487828 1.259600 0.000000 -68.780300
-0.311025 15.915933 -0.684564 -45.889331 85.596587 -21.009445 -8.433648 -2.009076 -0.610405 -7.767064 -5.796826 -61.089297 -0.592255 2.995494 51.743881 2.248281 9.227092 -13.281028 -0.642300 0.000000 -17.728800 11.735928 -0.897347 -6.252719 8.227069 -11.430902 -24.963004 -0.556215 -4.718539 64.303673 0.132274 6.107412 5.102241 1.310500 0.000000 -66.612800
-0.190705 15.935427 -0.691483 -45.168344 85.555580 -20.328186 -8.476490 -1.985658 -0.673597 -7.849745 -5.686195 -60.541156 -0.612604 2.997822 51.907963 2.281030 9.334494 -13.837689 -0.758700 0.000001 -17.777400 11.754467 -0.813197 -6.313701 8.234774 -11.617312 -25.667945 -0.740091 -4.783224 65.516508 -0.037853 4.969355 6.406252 1.234500 -0.000000 -64.038800
-0.072238 15.955698 -0.698432 -44.673180 85.534739 -19.871696 -8.518177 -1.962257 -0.736607 -7.952657 -5.562000 -59.967619 -0.642549 2.993941 52.002076 2.311537 9.416003 -14.428239 -0.882500 -0.000000 -17.836900 11.765238 -0.725876 -6.383421 8.276899 -11.828578 -26.434326 -0.906585 -4.854101 66.753262 -0.223661 3.603390 7.335446 1.023699 0.000000 -61.140400
0.044521 15.976544 -0.705585 -44.414162 85.528982 -19.648910 -8.558552 -1.939044 -0.797850 -8.067109 -5.426111 -59.371881 -0.680598 2.983676 52.029247 2.339191 9.469701 -15.041561 -1.010800 0.000000 -17.903700 11.768567 -0.636456 -6.459965 8.356324 -12.057587 -27.264536 -1.056833 -4.932538 68.008500 -0.423234 2.020555 7.846185 0.689199 0.000000 -58.020500
0.159682 15.997836 -0.713011 -44.413086 85.533527 -19.680116 -8.597665 -1.916935 -0.856329 -8.182417 -5.280884 -58.758811 -0.724484 2.967162 51.996010 2.363034 9.494358 -15.659443 -1.139300 -0.000000 -17.972800 11.764772 -0.546285 -6.540884 8.476244 -12.293509 -28.158404 -1.191850 -5.019419 69.272933 -0.634338 0.256946 7.913210 0.262700 -0.000000 -54.762200
0.273321 16.019477 -0.720836 -44.707117 85.544482 -19.999550 -8.635568 -1.897532 -0.911469 -8.287586 -5.130251 -58.135968 -0.771352 2.944677 51.910854 2.382221 9.491042 -16.259491 -1.263000 0.000000 -18.040100 11.754126 -0.456814 -6.623290 8.639649 -12.522946 -29.114932 -1.312180 -5.114981 70.532413 -0.854047 -1.626523 7.538990 -0.206700 -0.000000 -51.442900
0.385518 16.041407 -0.728931 -45.195901 85.555999 -20.504465 -8.673351 -1.880361 -0.962867 -8.378813 -4.975317 -57.512287 -0.819114 2.917777 51.783270 2.396239 9.463044 -16.820138 -1.376800 0.000000 -18.099300 11.736012 -0.367299 -6.703386 8.841024 -12.732678 -30.135517 -1.418685 -5.218068 71.774374 -1.078318 -3.550490 6.751870 -0.661000 -0.000000 -48.094800
0.496343 16.063569 -0.737243 -45.852656 85.564410 -21.164581 -8.711425 -1.866635 -1.010695 -8.449640 -4.819872 -56.897609 -0.865260 2.887487 51.623889 2.405195 9.416474 -17.324491 -1.477400 0.000000 -18.147800 11.710197 -0.278127 -6.777248 9.078396 -12.907072 -31.218249 -1.511376 -5.327059 72.979983 -1.301498 -5.425240 5.613440 -1.044200 -0.000001 -44.788700
0.605858 16.085975 -0.745577 -46.583225 85.566015 -21.883116 -8.750354 -1.856217 -1.055433 -8.498841 -4.665854 -56.300027 -0.908268 2.855273 51.442082 2.409827 9.359140 -17.763058 -1.563100 0.000000 -18.183700 11.676278 -0.188388 -6.840736 9.344966 -13.032399 -32.361270 -1.590546 -5.439354 74.131212 -1.516420 -7.163019 4.210601 -1.314800 -0.000000 -41.593800
0.714087 16.108595 -0.753738 -47.283244 85.556524 -22.554260 -8.790453 -1.848609 -1.098361 -8.527760 -4.513044 -55.724723 -0.947372 2.822613 51.246449 2.411429 9.299685 -18.135251 -1.634600 -0.000000 -18.208600 11.634097 -0.096890 -6.890072 9.632975 -13.096626 -33.560615 -1.656673 -5.551914 75.210682 -1.714659 -8.687433 2.646174 -1.453500 0.000000 -38.580100
0.821208 16.131411 -0.761624 -47.909863 85.534223 -23.133155 -8.831344 -1.844123 -1.140258 -8.536070 -4.363143 -55.176008 -0.982141 2.790204 51.043276 2.411879 9.247111 -18.448980 -1.694700 -0.000000 -18.225300 11.583813 -0.003157 -6.921865 9.937353 -13.090370 -34.810788 -1.710322 -5.661552 76.198452 -1.887597 -9.941308 1.041343 -1.467400 0.000000 -35.904200
0.927261 16.154358 -0.768991 -48.374757 85.496325 -23.533498 -8.872757 -1.841822 -1.183092 -8.528261 -4.213610 -54.651397 -1.013316 2.758939 50.836514 2.412944 9.208312 -18.718274 -1.747201 0.000000 -18.241000 11.525733 0.094000 -6.933975 10.249992 -13.008487 -36.102450 -1.752590 -5.765070 77.078492 -2.027233 -10.889533 -0.494553 -1.383600 0.000001 -33.677500
1.032478 16.177341 -0.775790 -48.675176 85.442567 -23.753108 -8.914022 -1.841850 -1.227701 -8.505885 -4.064465 -54.148466 -1.041672 2.728789 50.628213 2.416459 9.188431 -18.962118 -1.796800 -0.000000 -18.261000 11.460323 0.194253 -6.925045 10.567085 -12.850067 -37.426548 -1.784185 -5.860063 77.835061 -2.127011 -11.516450 -1.866607 -1.240500 0.000000 -32.007300
